P3
128 32
255
255 0 255 255 0 255 255 0 255 255 0 255 255 0 255 255 0 255 255 0 255 255 0 255 255 0 255 255 0 255 255 0 255 255 0 255 255 0 255 255 0 255 255 0 255 255 0 255 255 0 255 255 0 255 255 0 255 255 0 255 255 0 255 255 0 255 255 0 255 255 0 255 255 0 255 255 0 255 255 0 255 255 0 255 255 0 255 255 0 255 255 0 255 255 0 255 0 0 0 0 0 0 0 0 0 0 0 0 0 0 0 0 0 0 0 0 0 0 0 0 0 0 0 0 0 0 0 0 0 0 0 0 0 0 0 0 0 0 0 0 0 0 0 0 0 0 0 0 0 0 0 0 0 0 0 0 0 0 0 0 0 0 0 0 0 0 0 0 0 0 0 0 0 0 0 0 0 0 0 0 0 0 0 0 0 0 0 0 0 0 0 0 255 0 255 255 0 255 0 0 0 0 0 0 0 0 0 0 0 0 255 0 255 255 0 255 0 0 0 0 0 0 0 0 0 0 0 0 0 0 0 0 0 0 0 0 0 0 0 0 0 0 0 0 0 0 0 0 0 0 0 0 0 0 0 0 0 0 0 0 0 0 0 0 255 0 255 255 0 255 0 0 0 0 0 0 0 0 0 0 0 0 0 0 0 0 0 0 255 0 255 255 0 255 255 0 255 255 0 255 255 0 255 255 0 255 255 0 255 255 0 255 255 0 255 255 0 255 255 0 255 255 0 255 255 0 255 255 0 255 255 0 255 255 0 255 255 0 255 255 0 255 255 0 255 255 0 255 255 0 255 255 0 255 255 0 255 255 0 255 255 0 255 255 0 255 255 0 255 255 0 255 255 0 255 255 0 255 255 0 255 255 0 255 
255 0 255 255 0 255 255 0 255 255 0 255 255 0 255 255 0 255 255 0 255 255 0 255 255 0 255 255 0 255 255 0 255 255 0 255 255 0 255 255 0 255 255 0 255 255 0 255 255 0 255 255 0 255 255 0 255 255 0 255 255 0 255 255 0 255 255 0 255 255 0 255 255 0 255 255 0 255 255 0 255 255 0 255 255 0 255 255 0 255 255 0 255 255 0 255 0 0 0 0 0 0 0 0 0 0 0 0 0 0 0 0 0 0 0 0 0 0 0 0 0 0 0 0 0 0 0 0 0 0 0 0 0 0 0 0 0 0 0 0 0 0 0 0 0 0 0 0 0 0 0 0 0 0 0 0 0 0 0 0 0 0 0 0 0 0 0 0 0 0 0 0 0 0 0 0 0 0 0 0 0 0 0 0 0 0 0 0 0 0 0 0 255 0 255 255 0 255 0 0 0 0 0 0 0 0 0 0 0 0 255 0 255 255 0 255 0 0 0 0 0 0 0 0 0 0 0 0 0 0 0 0 0 0 0 0 0 0 0 0 0 0 0 0 0 0 0 0 0 0 0 0 0 0 0 0 0 0 0 0 0 0 0 0 255 0 255 255 0 255 0 0 0 0 0 0 0 0 0 0 0 0 0 0 0 0 0 0 255 0 255 255 0 255 255 0 255 255 0 255 255 0 255 255 0 255 255 0 255 255 0 255 255 0 255 255 0 255 255 0 255 255 0 255 255 0 255 255 0 255 255 0 255 255 0 255 255 0 255 255 0 255 255 0 255 255 0 255 255 0 255 255 0 255 255 0 255 255 0 255 255 0 255 255 0 255 255 0 255 255 0 255 255 0 255 255 0 255 255 0 255 255 0 255 
255 0 255 255 0 255 255 0 255 255 0 255 255 0 255 255 0 255 255 0 255 255 0 255 255 0 255 255 0 255 255 0 255 255 0 255 255 0 255 255 0 255 255 0 255 255 0 255 255 0 255 255 0 255 255 0 255 255 0 255 255 0 255 255 0 255 255 0 255 255 0 255 255 0 255 255 0 255 255 0 255 255 0 255 255 0 255 255 0 255 255 0 255 255 0 255 0 0 0 0 0 0 255 255 255 255 255 255 255 255 255 255 255 255 255 255 255 255 255 255 255 255 255 255 255 255 255 255 255 255 255 255 255 255 255 255 255 255 255 255 255 255 255 255 255 255 255 255 255 255 255 255 255 255 255 255 255 255 255 255 255 255 255 255 255 255 255 255 255 255 255 255 255 255 255 255 255 255 255 255 248 120 88 248 120 88 0 0 0 0 0 0 0 0 0 0 0 0 248 184 0 248 184 0 172 124 0 172 124 0 0 0 0 0 0 0 172 124 0 172 124 0 136 20 0 136 20 0 136 20 0 136 20 0 172 124 0 172 124 0 172 124 0 172 124 0 136 20 0 136 20 0 172 124 0 172 124 0 172 124 0 172 124 0 136 20 0 136 20 0 248 184 0 248 184 0 172 124 0 172 124 0 0 0 0 0 0 0 255 0 255 255 0 255 255 0 255 255 0 255 255 0 255 255 0 255 255 0 255 255 0 255 255 0 255 255 0 255 255 0 255 255 0 255 255 0 255 255 0 255 255 0 255 255 0 255 0 0 0 0 0 0 255 0 255 255 0 255 255 0 255 255 0 255 255 0 255 255 0 255 255 0 255 255 0 255 255 0 255 255 0 255 255 0 255 255 0 255 255 0 255 255 0 255 
255 0 255 255 0 255 255 0 255 255 0 255 255 0 255 255 0 255 255 0 255 255 0 255 255 0 255 255 0 255 255 0 255 255 0 255 255 0 255 255 0 255 255 0 255 255 0 255 255 0 255 255 0 255 255 0 255 255 0 255 255 0 255 255 0 255 255 0 255 255 0 255 255 0 255 255 0 255 255 0 255 255 0 255 255 0 255 255 0 255 255 0 255 255 0 255 0 0 0 0 0 0 255 255 255 255 255 255 255 255 255 255 255 255 255 255 255 255 255 255 255 255 255 255 255 255 255 255 255 255 255 255 255 255 255 255 255 255 255 255 255 255 255 255 255 255 255 255 255 255 255 255 255 255 255 255 255 255 255 255 255 255 255 255 255 255 255 255 255 255 255 255 255 255 255 255 255 255 255 255 248 120 88 248 120 88 0 0 0 0 0 0 0 0 0 0 0 0 248 184 0 248 184 0 172 124 0 172 124 0 0 0 0 0 0 0 172 124 0 172 124 0 136 20 0 136 20 0 136 20 0 136 20 0 172 124 0 172 124 0 172 124 0 172 124 0 136 20 0 136 20 0 172 124 0 172 124 0 172 124 0 172 124 0 136 20 0 136 20 0 248 184 0 248 184 0 172 124 0 172 124 0 0 0 0 0 0 0 255 0 255 255 0 255 255 0 255 255 0 255 255 0 255 255 0 255 255 0 255 255 0 255 255 0 255 255 0 255 255 0 255 255 0 255 255 0 255 255 0 255 255 0 255 255 0 255 0 0 0 0 0 0 255 0 255 255 0 255 255 0 255 255 0 255 255 0 255 255 0 255 255 0 255 255 0 255 255 0 255 255 0 255 255 0 255 255 0 255 255 0 255 255 0 255 
255 0 255 255 0 255 255 0 255 255 0 255 255 0 255 255 0 255 255 0 255 255 0 255 255 0 255 255 0 255 255 0 255 255 0 255 0 0 0 0 0 0 0 0 0 0 0 0 0 0 0 0 0 0 0 0 0 0 0 0 255 0 255 255 0 255 255 0 255 255 0 255 255 0 255 255 0 255 255 0 255 255 0 255 255 0 255 255 0 255 255 0 255 255 0 255 0 0 0 0 0 0 255 255 255 255 255 255 255 255 255 255 255 255 255 255 255 255 255 255 255 255 255 255 255 255 255 255 255 255 255 255 255 255 255 255 255 255 255 255 255 255 255 255 255 255 255 255 255 255 255 255 255 255 255 255 255 255 255 255 255 255 255 255 255 255 255 255 255 255 255 255 255 255 248 120 88 248 120 88 248 120 88 248 120 88 0 0 0 0 0 0 0 0 0 0 0 0 248 184 0 248 184 0 172 124 0 172 124 0 0 0 0 0 0 0 136 20 0 136 20 0 172 124 0 172 124 0 136 20 0 136 20 0 172 124 0 172 124 0 172 124 0 172 124 0 136 20 0 136 20 0 172 124 0 172 124 0 172 124 0 172 124 0 136 20 0 136 20 0 248 184 0 248 184 0 172 124 0 172 124 0 0 0 0 0 0 0 255 0 255 255 0 255 255 0 255 255 0 255 255 0 255 255 0 255 255 0 255 255 0 255 255 0 255 255 0 255 255 0 255 255 0 255 255 0 255 255 0 255 0 0 0 0 0 0 255 255 255 255 255 255 0 0 0 0 0 0 255 0 255 255 0 255 255 0 255 255 0 255 255 0 255 255 0 255 255 0 255 255 0 255 255 0 255 255 0 255 255 0 255 255 0 255 
255 0 255 255 0 255 255 0 255 255 0 255 255 0 255 255 0 255 255 0 255 255 0 255 255 0 255 255 0 255 255 0 255 255 0 255 0 0 0 0 0 0 0 0 0 0 0 0 0 0 0 0 0 0 0 0 0 0 0 0 255 0 255 255 0 255 255 0 255 255 0 255 255 0 255 255 0 255 255 0 255 255 0 255 255 0 255 255 0 255 255 0 255 255 0 255 0 0 0 0 0 0 255 255 255 255 255 255 255 255 255 255 255 255 255 255 255 255 255 255 255 255 255 255 255 255 255 255 255 255 255 255 255 255 255 255 255 255 255 255 255 255 255 255 255 255 255 255 255 255 255 255 255 255 255 255 255 255 255 255 255 255 255 255 255 255 255 255 255 255 255 255 255 255 248 120 88 248 120 88 248 120 88 248 120 88 0 0 0 0 0 0 0 0 0 0 0 0 248 184 0 248 184 0 172 124 0 172 124 0 0 0 0 0 0 0 136 20 0 136 20 0 172 124 0 172 124 0 136 20 0 136 20 0 172 124 0 172 124 0 172 124 0 172 124 0 136 20 0 136 20 0 172 124 0 172 124 0 172 124 0 172 124 0 136 20 0 136 20 0 248 184 0 248 184 0 172 124 0 172 124 0 0 0 0 0 0 0 255 0 255 255 0 255 255 0 255 255 0 255 255 0 255 255 0 255 255 0 255 255 0 255 255 0 255 255 0 255 255 0 255 255 0 255 255 0 255 255 0 255 0 0 0 0 0 0 255 255 255 255 255 255 0 0 0 0 0 0 255 0 255 255 0 255 255 0 255 255 0 255 255 0 255 255 0 255 255 0 255 255 0 255 255 0 255 255 0 255 255 0 255 255 0 255 
255 0 255 255 0 255 255 0 255 255 0 255 255 0 255 255 0 255 255 0 255 255 0 255 255 0 255 255 0 255 0 0 0 0 0 0 0 184 0 0 184 0 0 184 0 0 184 0 0 184 0 0 184 0 0 184 0 0 184 0 0 0 0 0 0 0 255 0 255 255 0 255 255 0 255 255 0 255 255 0 255 255 0 255 255 0 255 255 0 255 255 0 255 255 0 255 0 0 0 0 0 0 255 255 255 255 255 255 255 255 255 255 255 255 248 216 120 248 216 120 248 216 120 248 216 120 248 216 120 248 216 120 248 216 120 248 216 120 248 216 120 248 216 120 248 216 120 248 216 120 248 216 120 248 216 120 248 216 120 248 216 120 248 216 120 248 216 120 248 216 120 248 216 120 248 120 88 248 120 88 248 120 88 248 120 88 0 0 0 0 0 0 0 0 0 0 0 0 248 184 0 248 184 0 172 124 0 172 124 0 0 0 0 0 0 0 172 124 0 172 124 0 136 20 0 136 20 0 136 20 0 136 20 0 172 124 0 172 124 0 172 124 0 172 124 0 136 20 0 136 20 0 172 124 0 172 124 0 172 124 0 172 124 0 136 20 0 136 20 0 248 184 0 248 184 0 172 124 0 172 124 0 0 0 0 0 0 0 255 0 255 255 0 255 255 0 255 255 0 255 255 0 255 255 0 255 255 0 255 255 0 255 255 0 255 255 0 255 255 0 255 255 0 255 0 0 0 0 0 0 0 104 0 0 104 0 88 216 84 88 216 84 255 255 255 255 255 255 0 0 0 0 0 0 255 0 255 255 0 255 255 0 255 255 0 255 255 0 255 255 0 255 255 0 255 255 0 255 255 0 255 255 0 255 
255 0 255 255 0 255 255 0 255 255 0 255 255 0 255 255 0 255 255 0 255 255 0 255 255 0 255 255 0 255 0 0 0 0 0 0 0 184 0 0 184 0 0 184 0 0 184 0 0 184 0 0 184 0 0 184 0 0 184 0 0 0 0 0 0 0 255 0 255 255 0 255 255 0 255 255 0 255 255 0 255 255 0 255 255 0 255 255 0 255 255 0 255 255 0 255 0 0 0 0 0 0 255 255 255 255 255 255 255 255 255 255 255 255 248 216 120 248 216 120 248 216 120 248 216 120 248 216 120 248 216 120 248 216 120 248 216 120 248 216 120 248 216 120 248 216 120 248 216 120 248 216 120 248 216 120 248 216 120 248 216 120 248 216 120 248 216 120 248 216 120 248 216 120 248 120 88 248 120 88 248 120 88 248 120 88 0 0 0 0 0 0 0 0 0 0 0 0 248 184 0 248 184 0 172 124 0 172 124 0 0 0 0 0 0 0 172 124 0 172 124 0 136 20 0 136 20 0 136 20 0 136 20 0 172 124 0 172 124 0 172 124 0 172 124 0 136 20 0 136 20 0 172 124 0 172 124 0 172 124 0 172 124 0 136 20 0 136 20 0 248 184 0 248 184 0 172 124 0 172 124 0 0 0 0 0 0 0 255 0 255 255 0 255 255 0 255 255 0 255 255 0 255 255 0 255 255 0 255 255 0 255 255 0 255 255 0 255 255 0 255 255 0 255 0 0 0 0 0 0 0 104 0 0 104 0 88 216 84 88 216 84 255 255 255 255 255 255 0 0 0 0 0 0 255 0 255 255 0 255 255 0 255 255 0 255 255 0 255 255 0 255 255 0 255 255 0 255 255 0 255 255 0 255 
0 0 0 0 0 0 0 0 0 0 0 0 0 0 0 0 0 0 0 0 0 0 0 0 0 0 0 0 0 0 0 184 0 0 184 0 0 184 0 0 184 0 0 120 0 0 120 0 0 120 0 0 120 0 0 120 0 0 120 0 0 88 0 0 88 0 0 0 0 0 0 0 0 0 0 0 0 0 0 0 0 0 0 0 0 0 0 0 0 0 0 0 0 0 0 0 0 0 0 0 0 0 255 255 255 255 255 255 255 255 255 255 255 255 248 216 120 248 216 120 248 216 120 248 216 120 248 216 120 248 216 120 248 216 120 248 216 120 248 216 120 248 216 120 248 216 120 248 216 120 248 216 120 248 216 120 248 216 120 248 216 120 248 216 120 248 216 120 248 216 120 248 216 120 248 120 88 248 120 88 248 120 88 248 120 88 0 0 0 0 0 0 0 0 0 0 0 0 248 184 0 248 184 0 172 124 0 172 124 0 0 0 0 0 0 0 136 20 0 136 20 0 172 124 0 172 124 0 136 20 0 136 20 0 172 124 0 172 124 0 172 124 0 172 124 0 136 20 0 136 20 0 172 124 0 172 124 0 172 124 0 172 124 0 136 20 0 136 20 0 248 184 0 248 184 0 172 124 0 172 124 0 0 0 0 0 0 0 255 0 255 255 0 255 255 0 255 255 0 255 255 0 255 255 0 255 255 0 255 255 0 255 255 0 255 255 0 255 0 0 0 0 0 0 0 104 0 0 104 0 88 216 84 88 216 84 88 216 84 88 216 84 255 255 255 255 255 255 255 255 255 255 255 255 0 0 0 0 0 0 255 0 255 255 0 255 255 0 255 255 0 255 255 0 255 255 0 255 255 0 255 255 0 255 
0 0 0 0 0 0 0 0 0 0 0 0 0 0 0 0 0 0 0 0 0 0 0 0 0 0 0 0 0 0 0 184 0 0 184 0 0 184 0 0 184 0 0 120 0 0 120 0 0 120 0 0 120 0 0 120 0 0 120 0 0 88 0 0 88 0 0 0 0 0 0 0 0 0 0 0 0 0 0 0 0 0 0 0 0 0 0 0 0 0 0 0 0 0 0 0 0 0 0 0 0 0 255 255 255 255 255 255 255 255 255 255 255 255 248 216 120 248 216 120 248 216 120 248 216 120 248 216 120 248 216 120 248 216 120 248 216 120 248 216 120 248 216 120 248 216 120 248 216 120 248 216 120 248 216 120 248 216 120 248 216 120 248 216 120 248 216 120 248 216 120 248 216 120 248 120 88 248 120 88 248 120 88 248 120 88 0 0 0 0 0 0 0 0 0 0 0 0 248 184 0 248 184 0 172 124 0 172 124 0 0 0 0 0 0 0 136 20 0 136 20 0 172 124 0 172 124 0 136 20 0 136 20 0 172 124 0 172 124 0 172 124 0 172 124 0 136 20 0 136 20 0 172 124 0 172 124 0 172 124 0 172 124 0 136 20 0 136 20 0 248 184 0 248 184 0 172 124 0 172 124 0 0 0 0 0 0 0 255 0 255 255 0 255 255 0 255 255 0 255 255 0 255 255 0 255 255 0 255 255 0 255 255 0 255 255 0 255 0 0 0 0 0 0 0 104 0 0 104 0 88 216 84 88 216 84 88 216 84 88 216 84 255 255 255 255 255 255 255 255 255 255 255 255 0 0 0 0 0 0 255 0 255 255 0 255 255 0 255 255 0 255 255 0 255 255 0 255 255 0 255 255 0 255 
0 0 0 0 0 0 0 184 0 0 184 0 0 184 0 0 184 0 0 184 0 0 184 0 0 0 0 0 0 0 0 184 0 0 184 0 0 184 0 0 184 0 0 184 0 0 184 0 0 120 0 0 120 0 0 120 0 0 120 0 0 88 0 0 88 0 0 0 0 0 0 0 0 120 0 0 120 0 0 184 0 0 184 0 0 184 0 0 184 0 0 0 0 0 0 0 0 0 0 0 0 0 255 255 255 255 255 255 255 255 255 255 255 255 248 216 120 248 216 120 248 216 120 248 216 120 248 216 120 248 216 120 248 216 120 248 216 120 248 216 120 248 216 120 248 216 120 248 216 120 248 216 120 248 216 120 248 216 120 248 216 120 248 216 120 248 216 120 248 216 120 248 216 120 248 120 88 248 120 88 248 120 88 248 120 88 0 0 0 0 0 0 0 0 0 0 0 0 248 184 0 248 184 0 172 124 0 172 124 0 0 0 0 0 0 0 172 124 0 172 124 0 136 20 0 136 20 0 136 20 0 136 20 0 172 124 0 172 124 0 172 124 0 172 124 0 136 20 0 136 20 0 172 124 0 172 124 0 172 124 0 172 124 0 136 20 0 136 20 0 248 184 0 248 184 0 172 124 0 172 124 0 0 0 0 0 0 0 255 0 255 255 0 255 255 0 255 255 0 255 255 0 255 255 0 255 255 0 255 255 0 255 255 0 255 255 0 255 0 0 0 0 0 0 0 104 0 0 104 0 88 216 84 88 216 84 88 216 84 88 216 84 255 255 255 255 255 255 216 248 120 216 248 120 0 0 0 0 0 0 255 0 255 255 0 255 255 0 255 255 0 255 255 0 255 255 0 255 255 0 255 255 0 255 
0 0 0 0 0 0 0 184 0 0 184 0 0 184 0 0 184 0 0 184 0 0 184 0 0 0 0 0 0 0 0 184 0 0 184 0 0 184 0 0 184 0 0 184 0 0 184 0 0 120 0 0 120 0 0 120 0 0 120 0 0 88 0 0 88 0 0 0 0 0 0 0 0 120 0 0 120 0 0 184 0 0 184 0 0 184 0 0 184 0 0 0 0 0 0 0 0 0 0 0 0 0 255 255 255 255 255 255 255 255 255 255 255 255 248 216 120 248 216 120 248 216 120 248 216 120 248 216 120 248 216 120 248 216 120 248 216 120 248 216 120 248 216 120 248 216 120 248 216 120 248 216 120 248 216 120 248 216 120 248 216 120 248 216 120 248 216 120 248 216 120 248 216 120 248 120 88 248 120 88 248 120 88 248 120 88 0 0 0 0 0 0 0 0 0 0 0 0 248 184 0 248 184 0 172 124 0 172 124 0 0 0 0 0 0 0 172 124 0 172 124 0 136 20 0 136 20 0 136 20 0 136 20 0 172 124 0 172 124 0 172 124 0 172 124 0 136 20 0 136 20 0 172 124 0 172 124 0 172 124 0 172 124 0 136 20 0 136 20 0 248 184 0 248 184 0 172 124 0 172 124 0 0 0 0 0 0 0 255 0 255 255 0 255 255 0 255 255 0 255 255 0 255 255 0 255 255 0 255 255 0 255 255 0 255 255 0 255 0 0 0 0 0 0 0 104 0 0 104 0 88 216 84 88 216 84 88 216 84 88 216 84 255 255 255 255 255 255 216 248 120 216 248 120 0 0 0 0 0 0 255 0 255 255 0 255 255 0 255 255 0 255 255 0 255 255 0 255 255 0 255 255 0 255 
255 0 255 255 0 255 0 0 0 0 0 0 0 120 0 0 120 0 0 88 0 0 88 0 0 184 0 0 184 0 0 184 0 0 184 0 0 184 0 0 184 0 0 120 0 0 120 0 0 120 0 0 120 0 0 184 0 0 184 0 0 184 0 0 184 0 0 184 0 0 184 0 0 88 0 0 88 0 0 88 0 0 88 0 0 0 0 0 0 0 255 0 255 255 0 255 0 0 0 0 0 0 255 255 255 255 255 255 255 255 255 255 255 255 248 216 120 248 216 120 248 216 120 248 216 120 248 216 120 248 216 120 248 216 120 248 216 120 248 216 120 248 216 120 248 216 120 248 216 120 248 216 120 248 216 120 248 216 120 248 216 120 248 216 120 248 216 120 248 216 120 248 216 120 248 120 88 248 120 88 248 120 88 248 120 88 0 0 0 0 0 0 0 0 0 0 0 0 248 184 0 248 184 0 172 124 0 172 124 0 0 0 0 0 0 0 136 20 0 136 20 0 172 124 0 172 124 0 136 20 0 136 20 0 172 124 0 172 124 0 80 48 0 80 48 0 120 120 120 120 120 120 120 120 120 120 120 120 0 0 0 0 0 0 80 48 0 80 48 0 248 184 0 248 184 0 172 124 0 172 124 0 0 0 0 0 0 0 255 0 255 255 0 255 255 0 255 255 0 255 255 0 255 255 0 255 255 0 255 255 0 255 255 0 255 255 0 255 0 0 0 0 0 0 0 104 0 0 104 0 88 216 84 88 216 84 255 255 255 255 255 255 88 216 84 88 216 84 216 248 120 216 248 120 0 0 0 0 0 0 255 0 255 255 0 255 255 0 255 255 0 255 255 0 255 255 0 255 255 0 255 255 0 255 
255 0 255 255 0 255 0 0 0 0 0 0 0 120 0 0 120 0 0 88 0 0 88 0 0 184 0 0 184 0 0 184 0 0 184 0 0 184 0 0 184 0 0 120 0 0 120 0 0 120 0 0 120 0 0 184 0 0 184 0 0 184 0 0 184 0 0 184 0 0 184 0 0 88 0 0 88 0 0 88 0 0 88 0 0 0 0 0 0 0 255 0 255 255 0 255 0 0 0 0 0 0 255 255 255 255 255 255 255 255 255 255 255 255 248 216 120 248 216 120 248 216 120 248 216 120 248 216 120 248 216 120 248 216 120 248 216 120 248 216 120 248 216 120 248 216 120 248 216 120 248 216 120 248 216 120 248 216 120 248 216 120 248 216 120 248 216 120 248 216 120 248 216 120 248 120 88 248 120 88 248 120 88 248 120 88 0 0 0 0 0 0 0 0 0 0 0 0 248 184 0 248 184 0 172 124 0 172 124 0 0 0 0 0 0 0 136 20 0 136 20 0 172 124 0 172 124 0 136 20 0 136 20 0 172 124 0 172 124 0 80 48 0 80 48 0 120 120 120 120 120 120 120 120 120 120 120 120 0 0 0 0 0 0 80 48 0 80 48 0 248 184 0 248 184 0 172 124 0 172 124 0 0 0 0 0 0 0 255 0 255 255 0 255 255 0 255 255 0 255 255 0 255 255 0 255 255 0 255 255 0 255 255 0 255 255 0 255 0 0 0 0 0 0 0 104 0 0 104 0 88 216 84 88 216 84 255 255 255 255 255 255 88 216 84 88 216 84 216 248 120 216 248 120 0 0 0 0 0 0 255 0 255 255 0 255 255 0 255 255 0 255 255 0 255 255 0 255 255 0 255 255 0 255 
255 0 255 255 0 255 255 0 255 255 0 255 0 0 0 0 0 0 0 120 0 0 120 0 0 88 0 0 88 0 172 124 0 172 124 0 0 88 0 0 88 0 0 120 0 0 120 0 0 120 0 0 120 0 0 88 0 0 88 0 172 124 0 172 124 0 0 88 0 0 88 0 0 88 0 0 88 0 0 0 0 0 0 0 255 0 255 255 0 255 255 0 255 255 0 255 0 0 0 0 0 0 255 255 255 255 255 255 255 255 255 255 255 255 248 216 120 248 216 120 248 216 120 248 216 120 248 216 120 248 216 120 248 216 120 248 216 120 248 216 120 248 216 120 248 216 120 248 216 120 248 216 120 248 216 120 248 216 120 248 216 120 248 216 120 248 216 120 248 216 120 248 216 120 248 120 88 248 120 88 248 120 88 248 120 88 0 0 0 0 0 0 0 0 0 0 0 0 248 184 0 248 184 0 172 124 0 172 124 0 0 0 0 0 0 0 172 124 0 172 124 0 136 20 0 136 20 0 136 20 0 136 20 0 172 124 0 172 124 0 120 120 120 120 120 120 248 216 120 248 216 120 248 184 0 248 184 0 248 184 0 248 184 0 0 0 0 0 0 0 248 184 0 248 184 0 172 124 0 172 124 0 0 0 0 0 0 0 255 0 255 255 0 255 255 0 255 255 0 255 255 0 255 255 0 255 255 0 255 255 0 255 255 0 255 255 0 255 0 0 0 0 0 0 0 104 0 0 104 0 255 255 255 255 255 255 88 216 84 88 216 84 88 216 84 88 216 84 216 248 120 216 248 120 0 0 0 0 0 0 255 0 255 255 0 255 255 0 255 255 0 255 255 0 255 255 0 255 255 0 255 255 0 255 
255 0 255 255 0 255 255 0 255 255 0 255 0 0 0 0 0 0 0 120 0 0 120 0 0 88 0 0 88 0 172 124 0 172 124 0 0 88 0 0 88 0 0 120 0 0 120 0 0 120 0 0 120 0 0 88 0 0 88 0 172 124 0 172 124 0 0 88 0 0 88 0 0 88 0 0 88 0 0 0 0 0 0 0 255 0 255 255 0 255 255 0 255 255 0 255 0 0 0 0 0 0 255 255 255 255 255 255 255 255 255 255 255 255 248 216 120 248 216 120 248 216 120 248 216 120 248 216 120 248 216 120 248 216 120 248 216 120 248 216 120 248 216 120 248 216 120 248 216 120 248 216 120 248 216 120 248 216 120 248 216 120 248 216 120 248 216 120 248 216 120 248 216 120 248 120 88 248 120 88 248 120 88 248 120 88 0 0 0 0 0 0 0 0 0 0 0 0 248 184 0 248 184 0 172 124 0 172 124 0 0 0 0 0 0 0 172 124 0 172 124 0 136 20 0 136 20 0 136 20 0 136 20 0 172 124 0 172 124 0 120 120 120 120 120 120 248 216 120 248 216 120 248 184 0 248 184 0 248 184 0 248 184 0 0 0 0 0 0 0 248 184 0 248 184 0 172 124 0 172 124 0 0 0 0 0 0 0 255 0 255 255 0 255 255 0 255 255 0 255 255 0 255 255 0 255 255 0 255 255 0 255 255 0 255 255 0 255 0 0 0 0 0 0 0 104 0 0 104 0 255 255 255 255 255 255 88 216 84 88 216 84 88 216 84 88 216 84 216 248 120 216 248 120 0 0 0 0 0 0 255 0 255 255 0 255 255 0 255 255 0 255 255 0 255 255 0 255 255 0 255 255 0 255 
255 0 255 255 0 255 255 0 255 255 0 255 255 0 255 255 0 255 0 0 0 0 0 0 0 184 0 0 184 0 0 88 0 0 88 0 0 88 0 0 88 0 0 184 0 0 184 0 0 120 0 0 120 0 0 88 0 0 88 0 0 88 0 0 88 0 0 88 0 0 88 0 0 0 0 0 0 0 255 0 255 255 0 255 255 0 255 255 0 255 255 0 255 255 0 255 0 0 0 0 0 0 255 255 255 255 255 255 255 255 255 255 255 255 248 216 120 248 216 120 248 216 120 248 216 120 248 216 120 248 216 120 248 216 120 248 216 120 248 216 120 248 216 120 248 216 120 248 216 120 248 216 120 248 216 120 248 216 120 248 216 120 248 216 120 248 216 120 248 216 120 248 216 120 248 120 88 248 120 88 248 120 88 248 120 88 0 0 0 0 0 0 0 0 0 0 0 0 248 184 0 248 184 0 172 124 0 172 124 0 0 0 0 0 0 0 136 20 0 136 20 0 172 124 0 172 124 0 136 20 0 136 20 0 172 124 0 172 124 0 80 48 0 80 48 0 0 0 0 0 0 0 0 0 0 0 0 0 0 0 0 0 0 0 80 48 0 80 48 0 248 184 0 248 184 0 172 124 0 172 124 0 0 0 0 0 0 0 255 0 255 255 0 255 255 0 255 255 0 255 255 0 255 255 0 255 255 0 255 255 0 255 255 0 255 255 0 255 0 0 0 0 0 0 0 104 0 0 104 0 88 216 84 88 216 84 88 216 84 88 216 84 88 216 84 88 216 84 216 248 120 216 248 120 0 0 0 0 0 0 255 0 255 255 0 255 255 0 255 255 0 255 255 0 255 255 0 255 255 0 255 255 0 255 
255 0 255 255 0 255 255 0 255 255 0 255 255 0 255 255 0 255 0 0 0 0 0 0 0 184 0 0 184 0 0 88 0 0 88 0 0 88 0 0 88 0 0 184 0 0 184 0 0 120 0 0 120 0 0 88 0 0 88 0 0 88 0 0 88 0 0 88 0 0 88 0 0 0 0 0 0 0 255 0 255 255 0 255 255 0 255 255 0 255 255 0 255 255 0 255 0 0 0 0 0 0 255 255 255 255 255 255 255 255 255 255 255 255 248 216 120 248 216 120 248 216 120 248 216 120 248 216 120 248 216 120 248 216 120 248 216 120 248 216 120 248 216 120 248 216 120 248 216 120 248 216 120 248 216 120 248 216 120 248 216 120 248 216 120 248 216 120 248 216 120 248 216 120 248 120 88 248 120 88 248 120 88 248 120 88 0 0 0 0 0 0 0 0 0 0 0 0 248 184 0 248 184 0 172 124 0 172 124 0 0 0 0 0 0 0 136 20 0 136 20 0 172 124 0 172 124 0 136 20 0 136 20 0 172 124 0 172 124 0 80 48 0 80 48 0 0 0 0 0 0 0 0 0 0 0 0 0 0 0 0 0 0 0 80 48 0 80 48 0 248 184 0 248 184 0 172 124 0 172 124 0 0 0 0 0 0 0 255 0 255 255 0 255 255 0 255 255 0 255 255 0 255 255 0 255 255 0 255 255 0 255 255 0 255 255 0 255 0 0 0 0 0 0 0 104 0 0 104 0 88 216 84 88 216 84 88 216 84 88 216 84 88 216 84 88 216 84 216 248 120 216 248 120 0 0 0 0 0 0 255 0 255 255 0 255 255 0 255 255 0 255 255 0 255 255 0 255 255 0 255 255 0 255 
255 0 255 255 0 255 255 0 255 255 0 255 255 0 255 255 0 255 0 0 0 0 0 0 0 184 0 0 184 0 0 184 0 0 184 0 0 184 0 0 184 0 0 184 0 0 184 0 0 120 0 0 120 0 0 184 0 0 184 0 0 120 0 0 120 0 0 88 0 0 88 0 0 0 0 0 0 0 255 0 255 255 0 255 255 0 255 255 0 255 255 0 255 255 0 255 0 0 0 0 0 0 255 255 255 255 255 255 255 255 255 255 255 255 248 216 120 248 216 120 248 216 120 248 216 120 248 216 120 248 216 120 248 216 120 248 216 120 248 216 120 248 216 120 248 216 120 248 216 120 248 216 120 248 216 120 248 216 120 248 216 120 248 216 120 248 216 120 248 216 120 248 216 120 248 120 88 248 120 88 248 120 88 248 120 88 0 0 0 0 0 0 0 0 0 0 0 0 248 184 0 248 184 0 172 124 0 172 124 0 0 0 0 0 0 0 172 124 0 172 124 0 136 20 0 136 20 0 136 20 0 136 20 0 172 124 0 172 124 0 172 124 0 172 124 0 136 20 0 136 20 0 172 124 0 172 124 0 172 124 0 172 124 0 136 20 0 136 20 0 248 184 0 248 184 0 172 124 0 172 124 0 0 0 0 0 0 0 255 0 255 255 0 255 255 0 255 255 0 255 255 0 255 255 0 255 255 0 255 255 0 255 255 0 255 255 0 255 0 0 0 0 0 0 0 104 0 0 104 0 88 216 84 88 216 84 88 216 84 88 216 84 88 216 84 88 216 84 216 248 120 216 248 120 0 0 0 0 0 0 255 0 255 255 0 255 255 0 255 255 0 255 255 0 255 255 0 255 255 0 255 255 0 255 
255 0 255 255 0 255 255 0 255 255 0 255 255 0 255 255 0 255 0 0 0 0 0 0 0 184 0 0 184 0 0 184 0 0 184 0 0 184 0 0 184 0 0 184 0 0 184 0 0 120 0 0 120 0 0 184 0 0 184 0 0 120 0 0 120 0 0 88 0 0 88 0 0 0 0 0 0 0 255 0 255 255 0 255 255 0 255 255 0 255 255 0 255 255 0 255 0 0 0 0 0 0 255 255 255 255 255 255 255 255 255 255 255 255 248 216 120 248 216 120 248 216 120 248 216 120 248 216 120 248 216 120 248 216 120 248 216 120 248 216 120 248 216 120 248 216 120 248 216 120 248 216 120 248 216 120 248 216 120 248 216 120 248 216 120 248 216 120 248 216 120 248 216 120 248 120 88 248 120 88 248 120 88 248 120 88 0 0 0 0 0 0 0 0 0 0 0 0 248 184 0 248 184 0 172 124 0 172 124 0 0 0 0 0 0 0 172 124 0 172 124 0 136 20 0 136 20 0 136 20 0 136 20 0 172 124 0 172 124 0 172 124 0 172 124 0 136 20 0 136 20 0 172 124 0 172 124 0 172 124 0 172 124 0 136 20 0 136 20 0 248 184 0 248 184 0 172 124 0 172 124 0 0 0 0 0 0 0 255 0 255 255 0 255 255 0 255 255 0 255 255 0 255 255 0 255 255 0 255 255 0 255 255 0 255 255 0 255 0 0 0 0 0 0 0 104 0 0 104 0 88 216 84 88 216 84 88 216 84 88 216 84 88 216 84 88 216 84 216 248 120 216 248 120 0 0 0 0 0 0 255 0 255 255 0 255 255 0 255 255 0 255 255 0 255 255 0 255 255 0 255 255 0 255 
255 0 255 255 0 255 255 0 255 255 0 255 255 0 255 255 0 255 255 0 255 255 0 255 0 0 0 0 0 0 0 184 0 0 184 0 0 184 0 0 184 0 0 120 0 0 120 0 0 120 0 0 120 0 0 120 0 0 120 0 0 88 0 0 88 0 0 0 0 0 0 0 255 0 255 255 0 255 255 0 255 255 0 255 255 0 255 255 0 255 255 0 255 255 0 255 0 0 0 0 0 0 255 255 255 255 255 255 255 255 255 255 255 255 248 216 120 248 216 120 248 216 120 248 216 120 248 216 120 248 216 120 248 216 120 248 216 120 248 216 120 248 216 120 248 216 120 248 216 120 248 216 120 248 216 120 248 216 120 248 216 120 248 216 120 248 216 120 248 216 120 248 216 120 248 120 88 248 120 88 248 120 88 248 120 88 0 0 0 0 0 0 0 0 0 0 0 0 248 184 0 248 184 0 172 124 0 172 124 0 0 0 0 0 0 0 136 20 0 136 20 0 172 124 0 172 124 0 136 20 0 136 20 0 172 124 0 172 124 0 172 124 0 172 124 0 136 20 0 136 20 0 172 124 0 172 124 0 172 124 0 172 124 0 136 20 0 136 20 0 248 184 0 248 184 0 172 124 0 172 124 0 0 0 0 0 0 0 255 0 255 255 0 255 255 0 255 255 0 255 255 0 255 255 0 255 255 0 255 255 0 255 255 0 255 255 0 255 0 0 0 0 0 0 0 104 0 0 104 0 88 216 84 88 216 84 88 216 84 88 216 84 88 216 84 88 216 84 216 248 120 216 248 120 0 0 0 0 0 0 255 0 255 255 0 255 255 0 255 255 0 255 255 0 255 255 0 255 255 0 255 255 0 255 
255 0 255 255 0 255 255 0 255 255 0 255 255 0 255 255 0 255 255 0 255 255 0 255 0 0 0 0 0 0 0 184 0 0 184 0 0 184 0 0 184 0 0 120 0 0 120 0 0 120 0 0 120 0 0 120 0 0 120 0 0 88 0 0 88 0 0 0 0 0 0 0 255 0 255 255 0 255 255 0 255 255 0 255 255 0 255 255 0 255 255 0 255 255 0 255 0 0 0 0 0 0 255 255 255 255 255 255 255 255 255 255 255 255 248 216 120 248 216 120 248 216 120 248 216 120 248 216 120 248 216 120 248 216 120 248 216 120 248 216 120 248 216 120 248 216 120 248 216 120 248 216 120 248 216 120 248 216 120 248 216 120 248 216 120 248 216 120 248 216 120 248 216 120 248 120 88 248 120 88 248 120 88 248 120 88 0 0 0 0 0 0 0 0 0 0 0 0 248 184 0 248 184 0 172 124 0 172 124 0 0 0 0 0 0 0 136 20 0 136 20 0 172 124 0 172 124 0 136 20 0 136 20 0 172 124 0 172 124 0 172 124 0 172 124 0 136 20 0 136 20 0 172 124 0 172 124 0 172 124 0 172 124 0 136 20 0 136 20 0 248 184 0 248 184 0 172 124 0 172 124 0 0 0 0 0 0 0 255 0 255 255 0 255 255 0 255 255 0 255 255 0 255 255 0 255 255 0 255 255 0 255 255 0 255 255 0 255 0 0 0 0 0 0 0 104 0 0 104 0 88 216 84 88 216 84 88 216 84 88 216 84 88 216 84 88 216 84 216 248 120 216 248 120 0 0 0 0 0 0 255 0 255 255 0 255 255 0 255 255 0 255 255 0 255 255 0 255 255 0 255 255 0 255 
255 0 255 255 0 255 255 0 255 255 0 255 255 0 255 255 0 255 255 0 255 255 0 255 0 0 0 0 0 0 0 184 0 0 184 0 0 0 0 0 0 0 0 0 0 0 0 0 0 0 0 0 0 0 0 0 0 0 0 0 0 88 0 0 88 0 0 0 0 0 0 0 255 0 255 255 0 255 255 0 255 255 0 255 255 0 255 255 0 255 255 0 255 255 0 255 0 0 0 0 0 0 255 255 255 255 255 255 255 255 255 255 255 255 248 216 120 248 216 120 248 216 120 248 216 120 248 216 120 248 216 120 248 216 120 248 216 120 248 216 120 248 216 120 248 216 120 248 216 120 248 216 120 248 216 120 248 216 120 248 216 120 248 216 120 248 216 120 248 216 120 248 216 120 248 120 88 248 120 88 248 120 88 248 120 88 0 0 0 0 0 0 0 0 0 0 0 0 248 184 0 248 184 0 172 124 0 172 124 0 0 0 0 0 0 0 172 124 0 172 124 0 136 20 0 136 20 0 136 20 0 136 20 0 172 124 0 172 124 0 172 124 0 172 124 0 136 20 0 136 20 0 172 124 0 172 124 0 172 124 0 172 124 0 136 20 0 136 20 0 248 184 0 248 184 0 172 124 0 172 124 0 0 0 0 0 0 0 255 0 255 255 0 255 255 0 255 255 0 255 255 0 255 255 0 255 255 0 255 255 0 255 255 0 255 255 0 255 0 0 0 0 0 0 0 104 0 0 104 0 88 216 84 88 216 84 88 216 84 88 216 84 88 216 84 88 216 84 216 248 120 216 248 120 0 0 0 0 0 0 255 0 255 255 0 255 255 0 255 255 0 255 255 0 255 255 0 255 255 0 255 255 0 255 
255 0 255 255 0 255 255 0 255 255 0 255 255 0 255 255 0 255 255 0 255 255 0 255 0 0 0 0 0 0 0 184 0 0 184 0 0 0 0 0 0 0 0 0 0 0 0 0 0 0 0 0 0 0 0 0 0 0 0 0 0 88 0 0 88 0 0 0 0 0 0 0 255 0 255 255 0 255 255 0 255 255 0 255 255 0 255 255 0 255 255 0 255 255 0 255 0 0 0 0 0 0 255 255 255 255 255 255 255 255 255 255 255 255 248 216 120 248 216 120 248 216 120 248 216 120 248 216 120 248 216 120 248 216 120 248 216 120 248 216 120 248 216 120 248 216 120 248 216 120 248 216 120 248 216 120 248 216 120 248 216 120 248 216 120 248 216 120 248 216 120 248 216 120 248 120 88 248 120 88 248 120 88 248 120 88 0 0 0 0 0 0 0 0 0 0 0 0 248 184 0 248 184 0 172 124 0 172 124 0 0 0 0 0 0 0 172 124 0 172 124 0 136 20 0 136 20 0 136 20 0 136 20 0 172 124 0 172 124 0 172 124 0 172 124 0 136 20 0 136 20 0 172 124 0 172 124 0 172 124 0 172 124 0 136 20 0 136 20 0 248 184 0 248 184 0 172 124 0 172 124 0 0 0 0 0 0 0 255 0 255 255 0 255 255 0 255 255 0 255 255 0 255 255 0 255 255 0 255 255 0 255 255 0 255 255 0 255 0 0 0 0 0 0 0 104 0 0 104 0 88 216 84 88 216 84 88 216 84 88 216 84 88 216 84 88 216 84 216 248 120 216 248 120 0 0 0 0 0 0 255 0 255 255 0 255 255 0 255 255 0 255 255 0 255 255 0 255 255 0 255 255 0 255 
255 0 255 255 0 255 255 0 255 255 0 255 255 0 255 255 0 255 255 0 255 255 0 255 255 0 255 255 0 255 0 0 0 0 0 0 0 88 0 0 88 0 0 88 0 0 88 0 0 88 0 0 88 0 0 88 0 0 88 0 0 0 0 0 0 0 255 0 255 255 0 255 255 0 255 255 0 255 255 0 255 255 0 255 255 0 255 255 0 255 255 0 255 255 0 255 0 0 0 0 0 0 255 255 255 255 255 255 255 255 255 255 255 255 248 216 120 248 216 120 248 216 120 248 216 120 248 216 120 248 216 120 248 216 120 248 216 120 248 216 120 248 216 120 248 216 120 248 216 120 248 216 120 248 216 120 248 216 120 248 216 120 248 216 120 248 216 120 248 216 120 248 216 120 248 120 88 248 120 88 248 120 88 248 120 88 0 0 0 0 0 0 0 0 0 0 0 0 248 184 0 248 184 0 172 124 0 172 124 0 0 0 0 0 0 0 136 20 0 136 20 0 172 124 0 172 124 0 136 20 0 136 20 0 172 124 0 172 124 0 172 124 0 172 124 0 136 20 0 136 20 0 172 124 0 172 124 0 172 124 0 172 124 0 136 20 0 136 20 0 248 184 0 248 184 0 172 124 0 172 124 0 0 0 0 0 0 0 255 0 255 255 0 255 255 0 255 255 0 255 255 0 255 255 0 255 255 0 255 255 0 255 255 0 255 255 0 255 255 0 255 255 0 255 0 0 0 0 0 0 0 104 0 0 104 0 88 216 84 88 216 84 216 248 120 216 248 120 0 0 0 0 0 0 255 0 255 255 0 255 255 0 255 255 0 255 255 0 255 255 0 255 255 0 255 255 0 255 255 0 255 255 0 255 
255 0 255 255 0 255 255 0 255 255 0 255 255 0 255 255 0 255 255 0 255 255 0 255 255 0 255 255 0 255 0 0 0 0 0 0 0 88 0 0 88 0 0 88 0 0 88 0 0 88 0 0 88 0 0 88 0 0 88 0 0 0 0 0 0 0 255 0 255 255 0 255 255 0 255 255 0 255 255 0 255 255 0 255 255 0 255 255 0 255 255 0 255 255 0 255 0 0 0 0 0 0 255 255 255 255 255 255 255 255 255 255 255 255 248 216 120 248 216 120 248 216 120 248 216 120 248 216 120 248 216 120 248 216 120 248 216 120 248 216 120 248 216 120 248 216 120 248 216 120 248 216 120 248 216 120 248 216 120 248 216 120 248 216 120 248 216 120 248 216 120 248 216 120 248 120 88 248 120 88 248 120 88 248 120 88 0 0 0 0 0 0 0 0 0 0 0 0 248 184 0 248 184 0 172 124 0 172 124 0 0 0 0 0 0 0 136 20 0 136 20 0 172 124 0 172 124 0 136 20 0 136 20 0 172 124 0 172 124 0 172 124 0 172 124 0 136 20 0 136 20 0 172 124 0 172 124 0 172 124 0 172 124 0 136 20 0 136 20 0 248 184 0 248 184 0 172 124 0 172 124 0 0 0 0 0 0 0 255 0 255 255 0 255 255 0 255 255 0 255 255 0 255 255 0 255 255 0 255 255 0 255 255 0 255 255 0 255 255 0 255 255 0 255 0 0 0 0 0 0 0 104 0 0 104 0 88 216 84 88 216 84 216 248 120 216 248 120 0 0 0 0 0 0 255 0 255 255 0 255 255 0 255 255 0 255 255 0 255 255 0 255 255 0 255 255 0 255 255 0 255 255 0 255 
255 0 255 255 0 255 255 0 255 255 0 255 255 0 255 255 0 255 255 0 255 255 0 255 255 0 255 255 0 255 255 0 255 255 0 255 0 0 0 0 0 0 0 0 0 0 0 0 0 0 0 0 0 0 0 0 0 0 0 0 255 0 255 255 0 255 255 0 255 255 0 255 255 0 255 255 0 255 255 0 255 255 0 255 255 0 255 255 0 255 255 0 255 255 0 255 0 0 0 0 0 0 255 255 255 255 255 255 255 255 255 255 255 255 248 120 88 248 120 88 248 120 88 248 120 88 248 120 88 248 120 88 248 120 88 248 120 88 248 120 88 248 120 88 248 120 88 248 120 88 248 120 88 248 120 88 248 120 88 248 120 88 248 120 88 248 120 88 248 120 88 248 120 88 248 120 88 248 120 88 248 120 88 248 120 88 0 0 0 0 0 0 0 0 0 0 0 0 248 184 0 248 184 0 172 124 0 172 124 0 0 0 0 0 0 0 136 20 0 136 20 0 136 20 0 136 20 0 136 20 0 136 20 0 136 20 0 136 20 0 136 20 0 136 20 0 136 20 0 136 20 0 136 20 0 136 20 0 136 20 0 136 20 0 136 20 0 136 20 0 248 184 0 248 184 0 172 124 0 172 124 0 0 0 0 0 0 0 255 0 255 255 0 255 255 0 255 255 0 255 255 0 255 255 0 255 255 0 255 255 0 255 255 0 255 255 0 255 255 0 255 255 0 255 255 0 255 255 0 255 0 0 0 0 0 0 0 104 0 0 104 0 0 0 0 0 0 0 255 0 255 255 0 255 255 0 255 255 0 255 255 0 255 255 0 255 255 0 255 255 0 255 255 0 255 255 0 255 255 0 255 255 0 255 
255 0 255 255 0 255 255 0 255 255 0 255 255 0 255 255 0 255 255 0 255 255 0 255 255 0 255 255 0 255 255 0 255 255 0 255 0 0 0 0 0 0 0 0 0 0 0 0 0 0 0 0 0 0 0 0 0 0 0 0 255 0 255 255 0 255 255 0 255 255 0 255 255 0 255 255 0 255 255 0 255 255 0 255 255 0 255 255 0 255 255 0 255 255 0 255 0 0 0 0 0 0 255 255 255 255 255 255 255 255 255 255 255 255 248 120 88 248 120 88 248 120 88 248 120 88 248 120 88 248 120 88 248 120 88 248 120 88 248 120 88 248 120 88 248 120 88 248 120 88 248 120 88 248 120 88 248 120 88 248 120 88 248 120 88 248 120 88 248 120 88 248 120 88 248 120 88 248 120 88 248 120 88 248 120 88 0 0 0 0 0 0 0 0 0 0 0 0 248 184 0 248 184 0 172 124 0 172 124 0 0 0 0 0 0 0 136 20 0 136 20 0 136 20 0 136 20 0 136 20 0 136 20 0 136 20 0 136 20 0 136 20 0 136 20 0 136 20 0 136 20 0 136 20 0 136 20 0 136 20 0 136 20 0 136 20 0 136 20 0 248 184 0 248 184 0 172 124 0 172 124 0 0 0 0 0 0 0 255 0 255 255 0 255 255 0 255 255 0 255 255 0 255 255 0 255 255 0 255 255 0 255 255 0 255 255 0 255 255 0 255 255 0 255 255 0 255 255 0 255 0 0 0 0 0 0 0 104 0 0 104 0 0 0 0 0 0 0 255 0 255 255 0 255 255 0 255 255 0 255 255 0 255 255 0 255 255 0 255 255 0 255 255 0 255 255 0 255 255 0 255 255 0 255 
255 0 255 255 0 255 255 0 255 255 0 255 255 0 255 255 0 255 255 0 255 255 0 255 255 0 255 255 0 255 255 0 255 255 0 255 255 0 255 255 0 255 255 0 255 255 0 255 255 0 255 255 0 255 255 0 255 255 0 255 255 0 255 255 0 255 255 0 255 255 0 255 255 0 255 255 0 255 255 0 255 255 0 255 255 0 255 255 0 255 255 0 255 255 0 255 0 0 0 0 0 0 255 255 255 255 255 255 248 120 88 248 120 88 248 120 88 248 120 88 248 120 88 248 120 88 248 120 88 248 120 88 248 120 88 248 120 88 248 120 88 248 120 88 248 120 88 248 120 88 248 120 88 248 120 88 248 120 88 248 120 88 248 120 88 248 120 88 248 120 88 248 120 88 248 120 88 248 120 88 248 120 88 248 120 88 0 0 0 0 0 0 0 0 0 0 0 0 248 184 0 248 184 0 172 124 0 172 124 0 0 0 0 0 0 0 172 124 0 172 124 0 172 124 0 172 124 0 172 124 0 172 124 0 172 124 0 172 124 0 172 124 0 172 124 0 172 124 0 172 124 0 172 124 0 172 124 0 172 124 0 172 124 0 136 20 0 136 20 0 248 184 0 248 184 0 172 124 0 172 124 0 0 0 0 0 0 0 255 0 255 255 0 255 255 0 255 255 0 255 255 0 255 255 0 255 255 0 255 255 0 255 255 0 255 255 0 255 255 0 255 255 0 255 255 0 255 255 0 255 255 0 255 255 0 255 0 0 0 0 0 0 255 0 255 255 0 255 255 0 255 255 0 255 255 0 255 255 0 255 255 0 255 255 0 255 255 0 255 255 0 255 255 0 255 255 0 255 255 0 255 255 0 255 
255 0 255 255 0 255 255 0 255 255 0 255 255 0 255 255 0 255 255 0 255 255 0 255 255 0 255 255 0 255 255 0 255 255 0 255 255 0 255 255 0 255 255 0 255 255 0 255 255 0 255 255 0 255 255 0 255 255 0 255 255 0 255 255 0 255 255 0 255 255 0 255 255 0 255 255 0 255 255 0 255 255 0 255 255 0 255 255 0 255 255 0 255 255 0 255 0 0 0 0 0 0 255 255 255 255 255 255 248 120 88 248 120 88 248 120 88 248 120 88 248 120 88 248 120 88 248 120 88 248 120 88 248 120 88 248 120 88 248 120 88 248 120 88 248 120 88 248 120 88 248 120 88 248 120 88 248 120 88 248 120 88 248 120 88 248 120 88 248 120 88 248 120 88 248 120 88 248 120 88 248 120 88 248 120 88 0 0 0 0 0 0 0 0 0 0 0 0 248 184 0 248 184 0 172 124 0 172 124 0 0 0 0 0 0 0 172 124 0 172 124 0 172 124 0 172 124 0 172 124 0 172 124 0 172 124 0 172 124 0 172 124 0 172 124 0 172 124 0 172 124 0 172 124 0 172 124 0 172 124 0 172 124 0 136 20 0 136 20 0 248 184 0 248 184 0 172 124 0 172 124 0 0 0 0 0 0 0 255 0 255 255 0 255 255 0 255 255 0 255 255 0 255 255 0 255 255 0 255 255 0 255 255 0 255 255 0 255 255 0 255 255 0 255 255 0 255 255 0 255 255 0 255 255 0 255 0 0 0 0 0 0 255 0 255 255 0 255 255 0 255 255 0 255 255 0 255 255 0 255 255 0 255 255 0 255 255 0 255 255 0 255 255 0 255 255 0 255 255 0 255 255 0 255 
255 0 255 255 0 255 255 0 255 255 0 255 255 0 255 255 0 255 255 0 255 255 0 255 255 0 255 255 0 255 255 0 255 255 0 255 255 0 255 255 0 255 255 0 255 255 0 255 255 0 255 255 0 255 255 0 255 255 0 255 255 0 255 255 0 255 255 0 255 255 0 255 255 0 255 255 0 255 255 0 255 255 0 255 255 0 255 255 0 255 255 0 255 255 0 255 0 0 0 0 0 0 0 0 0 0 0 0 0 0 0 0 0 0 0 0 0 0 0 0 0 0 0 0 0 0 0 0 0 0 0 0 0 0 0 0 0 0 0 0 0 0 0 0 0 0 0 0 0 0 0 0 0 0 0 0 0 0 0 0 0 0 0 0 0 0 0 0 0 0 0 0 0 0 0 0 0 0 0 0 0 0 0 0 0 0 0 0 0 0 0 0 255 0 255 255 0 255 0 0 0 0 0 0 0 0 0 0 0 0 0 0 0 0 0 0 0 0 0 0 0 0 0 0 0 0 0 0 0 0 0 0 0 0 0 0 0 0 0 0 0 0 0 0 0 0 0 0 0 0 0 0 0 0 0 0 0 0 0 0 0 0 0 0 0 0 0 0 0 0 0 0 0 0 0 0 0 0 0 0 0 0 255 0 255 255 0 255 255 0 255 255 0 255 255 0 255 255 0 255 255 0 255 255 0 255 255 0 255 255 0 255 255 0 255 255 0 255 255 0 255 255 0 255 255 0 255 255 0 255 255 0 255 255 0 255 255 0 255 255 0 255 255 0 255 255 0 255 255 0 255 255 0 255 255 0 255 255 0 255 255 0 255 255 0 255 255 0 255 255 0 255 255 0 255 255 0 255 255 0 255 255 0 255 
255 0 255 255 0 255 255 0 255 255 0 255 255 0 255 255 0 255 255 0 255 255 0 255 255 0 255 255 0 255 255 0 255 255 0 255 255 0 255 255 0 255 255 0 255 255 0 255 255 0 255 255 0 255 255 0 255 255 0 255 255 0 255 255 0 255 255 0 255 255 0 255 255 0 255 255 0 255 255 0 255 255 0 255 255 0 255 255 0 255 255 0 255 255 0 255 0 0 0 0 0 0 0 0 0 0 0 0 0 0 0 0 0 0 0 0 0 0 0 0 0 0 0 0 0 0 0 0 0 0 0 0 0 0 0 0 0 0 0 0 0 0 0 0 0 0 0 0 0 0 0 0 0 0 0 0 0 0 0 0 0 0 0 0 0 0 0 0 0 0 0 0 0 0 0 0 0 0 0 0 0 0 0 0 0 0 0 0 0 0 0 0 255 0 255 255 0 255 0 0 0 0 0 0 0 0 0 0 0 0 0 0 0 0 0 0 0 0 0 0 0 0 0 0 0 0 0 0 0 0 0 0 0 0 0 0 0 0 0 0 0 0 0 0 0 0 0 0 0 0 0 0 0 0 0 0 0 0 0 0 0 0 0 0 0 0 0 0 0 0 0 0 0 0 0 0 0 0 0 0 0 0 255 0 255 255 0 255 255 0 255 255 0 255 255 0 255 255 0 255 255 0 255 255 0 255 255 0 255 255 0 255 255 0 255 255 0 255 255 0 255 255 0 255 255 0 255 255 0 255 255 0 255 255 0 255 255 0 255 255 0 255 255 0 255 255 0 255 255 0 255 255 0 255 255 0 255 255 0 255 255 0 255 255 0 255 255 0 255 255 0 255 255 0 255 255 0 255 255 0 255 255 0 255 
